<?xml version="1.0" encoding="iso-8859-1"?>
<!-- Generator: Adobe Illustrator 19.0.0, SVG Export Plug-In . SVG Version: 6.00 Build 0)  -->
<svg version="1.1" id="Layer_1" xmlns="http://www.w3.org/2000/svg" xmlns:xlink="http://www.w3.org/1999/xlink" x="0px" y="0px"
	 viewBox="0 0 512 512" style="enable-background:new 0 0 512 512;" xml:space="preserve">
<path style="fill:#7E7E82;" d="M283.889,308.887c7.143,0,12.935,5.79,12.935,12.935v2.294c0,7.144-5.792,12.935-12.935,12.935
	h-54.973c-7.143,0-12.935-5.79-12.935-12.935v-2.294c0-7.144,5.792-12.935,12.935-12.935H283.889z"/>
<g style="opacity:0.15;">
	<path style="fill:#202020;" d="M242.323,324.115v-2.294c0-7.144,5.792-12.935,12.935-12.935h-26.342
		c-7.143,0-12.935,5.79-12.935,12.935v2.294c0,7.144,5.792,12.935,12.935,12.935h26.342
		C248.115,337.05,242.323,331.26,242.323,324.115z"/>
</g>
<path style="fill:#DCE0E2;" d="M242.323,337.05v25.173v127.811c0,7.666,6.215,13.88,13.88,13.88h1.396
	c7.665,0,13.88-6.214,13.88-13.88V337.049h-29.156V337.05z"/>
<path style="fill:#E95353;" d="M192.864,65.853c-41.112-22.847-92.96-8.036-115.805,33.075
	c-20.644,37.145-11.046,83.968,21.421,109.331l0.018,0.009c3.461,2.703,7.676,4.267,11.636,6.467
	c3.96,2.198,7.514,4.952,11.636,6.465l75.135,41.751c2.825,2.337,6.401,3.555,9.718,5.4c29.044,16.14,65.674,5.678,81.812-23.367
	c12.373-22.265,9.099-48.973-6.181-67.505c0,0-5.684-6.583-9.392-9.156c-0.002,0.002-0.002-0.001-0.004-0.002
	c-2.425-1.885-5.021-3.613-7.792-5.148c-0.379-0.211-0.769-0.391-1.151-0.595c-19.292-14.29-27.038-33.694-29.629-42.137
	C228.925,98.061,214.571,77.913,192.864,65.853z"/>
<g style="opacity:0.15;">
	<path style="fill:#202020;" d="M233.309,274.819c-3.319-1.845-6.893-3.063-9.718-5.4l-75.136-41.751
		c-4.121-1.513-7.675-4.267-11.635-6.465c-3.96-2.2-8.175-3.764-11.637-6.467l-0.019-0.009
		c-32.466-25.362-42.064-72.186-21.421-109.331c16.67-29.997,48.779-45.969,80.893-43.549
		c-39.568-16.772-86.232-1.33-107.577,37.082c-20.644,37.145-11.046,83.968,21.421,109.331l0.018,0.009
		c3.461,2.703,7.676,4.267,11.636,6.467c3.96,2.198,7.514,4.952,11.636,6.465l75.135,41.751c2.825,2.337,6.401,3.555,9.718,5.4
		c9.144,5.081,19.04,7.522,28.811,7.579C234.723,275.571,234.013,275.209,233.309,274.819z"/>
</g>
<path style="fill:#E95353;" d="M419.24,130.153l10.564,32.819c1.179,2.18,1.516,4.71,2.303,7.155
	c6.884,21.388-4.872,44.306-26.259,51.189c-16.396,5.276-33.678-0.406-43.962-12.979c0,0-3.616-4.636-4.835-7.433
	c0.002-0.001,0-0.002,0-0.002c-0.932-1.858-1.736-3.805-2.392-5.845c-0.091-0.28-0.157-0.562-0.243-0.843
	c-6.939-14.674-18.792-22.364-24.051-25.194c-14.139-6.5-25.615-18.671-30.758-34.654c-9.745-30.273,6.899-62.714,37.17-72.458
	c27.352-8.806,57.146,3.719,69.697,28.589l0.002,0.014c1.339,2.652,1.821,5.654,2.759,8.569c0.937,2.916,2.295,5.635,2.758,8.566"/>
<g style="opacity:0.15;">
	<path style="fill:#202020;" d="M388.325,192.438c0,0-3.616-4.636-4.835-7.433c0.002-0.001,0-0.002,0-0.002
		c-0.932-1.858-1.736-3.805-2.392-5.845c-0.091-0.28-0.158-0.562-0.243-0.843c-6.939-14.674-18.792-22.364-24.051-25.194
		c-14.139-6.5-25.615-18.671-30.758-34.654c-6.67-20.719-0.973-42.45,12.988-57.229c-0.751,0.209-1.506,0.428-2.255,0.669
		c-30.272,9.744-46.915,42.186-37.17,72.458c5.144,15.983,16.619,28.155,30.758,34.654c5.259,2.829,17.112,10.519,24.051,25.194
		c0.084,0.281,0.152,0.563,0.243,0.843c0.654,2.04,1.459,3.987,2.392,5.845c0,0,0.002,0.001,0,0.002
		c1.219,2.798,4.835,7.433,4.835,7.433c10.284,12.573,27.566,18.255,43.962,12.979c8.373-2.695,15.259-7.854,20.139-14.408
		C411.599,209.13,397.297,203.407,388.325,192.438z"/>
</g>
<circle style="fill:#FFF1CE;" cx="151.563" cy="141.193" r="17.07"/>
<g>
	<path style="fill:#202020;" d="M477.117,0H34.889C15.652,0,0.001,15.65,0.001,34.886v261.281c0,19.237,15.651,34.886,34.888,34.886
		h174.209c2.876,8.186,10.661,14.081,19.817,14.081h13.407h21.072v144.901c0,3.196-2.6,5.796-5.796,5.796h-1.396
		c-3.196,0-5.796-2.6-5.796-5.796v-127.81c0-4.466-3.618-8.084-8.084-8.084c-4.466,0-8.084,3.618-8.084,8.084v127.811
		c0,12.111,9.853,21.964,21.964,21.964h1.396c12.111,0,21.964-9.853,21.964-21.964V345.134h4.327
		c9.156,0,16.942-5.895,19.817-14.081h173.41c19.235,0,34.884-15.65,34.884-34.886V34.886C512,15.65,496.351,0,477.117,0z
		 M303.38,313.995c-0.061-0.152-0.116-0.307-0.181-0.458c-0.246-0.571-0.514-1.132-0.808-1.676
		c-0.052-0.096-0.112-0.186-0.165-0.281c-0.25-0.445-0.513-0.881-0.794-1.305c-0.111-0.168-0.229-0.331-0.344-0.496
		c-0.247-0.35-0.502-0.693-0.77-1.027c-0.128-0.161-0.254-0.321-0.387-0.478c-0.309-0.365-0.633-0.718-0.966-1.062
		c-0.096-0.099-0.185-0.203-0.283-0.301c-0.434-0.431-0.888-0.843-1.358-1.235c-0.116-0.097-0.238-0.184-0.356-0.278
		c-0.365-0.291-0.737-0.572-1.121-0.84c-0.17-0.119-0.345-0.232-0.518-0.346c-0.359-0.234-0.724-0.456-1.098-0.668
		c-0.176-0.099-0.348-0.202-0.527-0.295c-0.465-0.247-0.939-0.474-1.424-0.687c-0.087-0.038-0.17-0.083-0.258-0.12
		c-0.128-0.054-0.261-0.098-0.39-0.15V256c0-0.292-0.017-0.581-0.047-0.864c1.407-1.991,2.718-4.065,3.918-6.224
		c12.884-23.186,11.25-51.088-3.871-72.466v-40.557c0.097,0.317,0.179,0.636,0.281,0.952c5.588,17.363,18.274,31.713,34.829,39.409
		c0.998,0.544,2.316,1.326,3.815,2.345v136.29h-26.824C303.626,314.582,303.5,314.29,303.38,313.995z M218.576,303.545
		c-0.373,0.212-0.739,0.434-1.098,0.668c-0.175,0.113-0.348,0.226-0.518,0.346c-0.384,0.267-0.757,0.548-1.121,0.84
		c-0.117,0.094-0.24,0.181-0.357,0.278c-0.471,0.392-0.924,0.804-1.358,1.235c-0.098,0.098-0.189,0.203-0.285,0.302
		c-0.333,0.344-0.655,0.696-0.965,1.062c-0.131,0.156-0.259,0.316-0.386,0.475c-0.267,0.335-0.524,0.678-0.771,1.03
		c-0.115,0.164-0.232,0.327-0.343,0.494c-0.281,0.426-0.545,0.863-0.797,1.31c-0.053,0.094-0.112,0.183-0.163,0.278
		c-0.294,0.545-0.563,1.106-0.81,1.678c-0.064,0.149-0.117,0.302-0.179,0.452c-0.12,0.297-0.247,0.591-0.354,0.895h-27.626v-51.275
		l10.949,6.085c2.449,1.886,5.031,3.124,7.329,4.228c1.062,0.51,2.065,0.992,2.972,1.496c5.563,3.091,11.524,5.377,17.674,6.813
		v20.402c-0.43,0.192-0.854,0.395-1.269,0.614C218.924,303.343,218.751,303.446,218.576,303.545z M385.646,58.655
		c-11.772-6.127-25.365-8.759-38.922-7.144V16.168h38.922V58.655z M330.556,55.555c-14.979,5.823-27.163,16.772-34.561,31.193
		c-1.789,3.487-3.232,7.087-4.363,10.756V16.168h38.924V55.555z M235.792,267.853c-8.782,0-17.51-2.27-25.239-6.567
		c-1.329-0.739-2.602-1.35-3.832-1.94c-1.907-0.915-3.552-1.705-4.663-2.625c-0.382-0.316-0.792-0.596-1.227-0.836l-75.135-41.751
		c-0.365-0.203-0.746-0.378-1.14-0.522c-1.951-0.717-4.036-2.018-6.245-3.395c-1.347-0.84-2.74-1.71-4.25-2.547
		c-1.506-0.836-2.974-1.558-4.392-2.255c-2.341-1.15-4.553-2.236-6.194-3.518c-0.069-0.054-0.14-0.108-0.211-0.16
		c-29.406-23.128-37.64-65.59-19.138-98.881c13.591-24.46,39.438-39.655,67.451-39.655c12.999,0,25.918,3.361,37.36,9.719
		c18.804,10.448,32.468,28.456,37.487,49.406c0.04,0.164,0.084,0.328,0.134,0.489c2.646,8.621,11.115,30.387,32.546,46.261
		c0.326,0.24,0.667,0.457,1.025,0.647c0.212,0.112,0.427,0.221,0.642,0.329c0.117,0.059,0.238,0.116,0.377,0.194
		c2.322,1.287,4.578,2.777,6.705,4.426c0.155,0.121,0.313,0.237,0.474,0.347c1.967,1.397,5.676,5.286,7.75,7.678
		c13.672,16.642,15.75,39.54,5.291,58.364C272.186,257.586,254.721,267.853,235.792,267.853z M275.464,160.189
		c-2.088-1.484-4.251-2.853-6.453-4.073c-0.267-0.15-0.537-0.29-0.807-0.427c-17.005-12.843-23.885-30.222-26.116-37.391
		c-1.35-5.564-3.233-10.942-5.547-16.102V16.168h38.924V160.189z M220.371,77.508c-6.744-7.413-14.677-13.775-23.58-18.722
		c-4.912-2.729-10.055-4.993-15.344-6.79V16.168h38.924V77.508z M165.278,48.068c-4.53-0.68-9.11-1.037-13.701-1.037
		c-8.647,0-17.12,1.204-25.223,3.478V16.168h38.924V48.068z M110.186,56.719C94.226,64.614,80.6,77.026,71.261,92.807V16.168h38.924
		v40.55H110.186z M71.261,189.23c5.672,9.609,13.117,18.271,22.242,25.4c0.083,0.066,0.168,0.129,0.255,0.192
		c2.895,2.214,6.018,3.748,8.782,5.105c1.295,0.636,2.519,1.236,3.67,1.877c1.152,0.64,2.313,1.365,3.543,2.131
		c0.139,0.087,0.29,0.178,0.43,0.266v90.685H71.261V189.23z M126.355,232.996l38.924,21.63v60.26h-38.924V232.996z M236.539,284.008
		c14.198-0.155,27.731-4.715,38.924-12.692v29.487h-38.924V284.008z M346.725,196.888c0.033,0.067,0.07,0.129,0.103,0.196
		c0.043,0.151,0.087,0.299,0.134,0.442c0.744,2.316,1.675,4.606,2.768,6.808c1.594,3.529,5.088,8.083,5.783,8.975
		c0.038,0.05,0.077,0.098,0.115,0.147c7.785,9.516,18.495,15.494,30.018,17.327v84.103h-38.922L346.725,196.888L346.725,196.888z
		 M401.815,230.624c2.18-0.388,4.355-0.918,6.51-1.613c12.399-3.99,22.502-12.571,28.448-24.162
		c1.749-3.41,3.066-6.963,3.967-10.591v120.627h-38.924v-84.261H401.815z M440.74,171.002c-0.277-1.123-0.579-2.243-0.937-3.354
		c-0.191-0.592-0.369-1.282-0.556-2.014c-0.427-1.662-0.947-3.686-1.942-5.747l-10.368-32.211c-1.369-4.25-5.925-6.585-10.173-5.219
		c-4.25,1.369-6.586,5.923-5.219,10.173l10.564,32.819c0.153,0.473,0.348,0.931,0.585,1.369c0.31,0.575,0.594,1.676,0.892,2.842
		c0.229,0.887,0.487,1.893,0.826,2.944c2.669,8.288,1.95,17.12-2.025,24.867c-3.974,7.748-10.726,13.482-19.015,16.149
		c-12.818,4.124-26.611,0.071-35.167-10.327c-1.439-1.857-3.268-4.53-3.742-5.618c-0.059-0.135-0.121-0.269-0.186-0.4
		c-0.762-1.519-1.409-3.096-1.914-4.675l-0.047-0.17c-0.05-0.179-0.099-0.358-0.153-0.537c-0.116-0.389-0.262-0.769-0.435-1.136
		c-8.04-17.003-21.93-25.846-27.528-28.856c-0.15-0.08-0.3-0.156-0.454-0.226c-12.57-5.779-22.208-16.636-26.439-29.787
		c-4.052-12.586-2.959-25.996,3.076-37.76c6.036-11.764,16.29-20.475,28.877-24.526c23.277-7.487,48.982,2.963,59.896,24.329
		c0.034,0.073,0.07,0.149,0.108,0.222c0.512,1.012,0.888,2.425,1.325,4.063c0.285,1.065,0.579,2.168,0.955,3.336
		c0.379,1.179,0.785,2.25,1.176,3.285c0.599,1.582,1.117,2.948,1.293,4.069c0.696,4.411,4.842,7.419,9.246,6.724
		c4.411-0.696,7.421-4.837,6.724-9.246c-0.437-2.766-1.343-5.16-2.142-7.271c-0.336-0.885-0.651-1.721-0.907-2.511
		c-0.251-0.784-0.481-1.643-0.724-2.554c-0.563-2.109-1.198-4.489-2.377-6.905c-0.044-0.098-0.091-0.194-0.139-0.289
		c-3.129-6.201-7.192-11.716-11.947-16.45c0.042-0.332,0.07-0.668,0.07-1.012V16.168h38.924v154.833H440.74z M16.169,296.168V34.886
		c0-10.321,8.398-18.718,18.72-18.718h20.204v298.717H34.889C24.567,314.885,16.169,306.489,16.169,296.168z M288.739,324.115
		c0,2.674-2.176,4.851-4.851,4.851h-12.411h-29.156h-13.407c-2.674,0-4.851-2.176-4.851-4.851v-1.146v-1.147
		c0-2.674,2.176-4.851,4.851-4.851h54.973c2.674,0,4.851,2.176,4.851,4.851v1.147v1.146H288.739z M495.832,296.168
		c0,10.321-8.396,18.718-18.715,18.718h-20.208V16.168h20.208c10.32,0,18.715,8.397,18.715,18.718V296.168z"/>
	<path style="fill:#202020;" d="M151.56,116.034c-13.869,0-25.154,11.284-25.154,25.154s11.284,25.154,25.154,25.154
		c13.869,0,25.154-11.284,25.154-25.154S165.43,116.034,151.56,116.034z M151.56,150.173c-4.955,0-8.985-4.03-8.985-8.985
		s4.03-8.985,8.985-8.985s8.985,4.03,8.985,8.985S156.515,150.173,151.56,150.173z"/>
</g>
<g>
</g>
<g>
</g>
<g>
</g>
<g>
</g>
<g>
</g>
<g>
</g>
<g>
</g>
<g>
</g>
<g>
</g>
<g>
</g>
<g>
</g>
<g>
</g>
<g>
</g>
<g>
</g>
<g>
</g>
</svg>
